<?xml version="1.0" encoding="UTF-8"?><svg id="_イヤー_2" xmlns="http://www.w3.org/2000/svg" viewBox="0 0 570 333.49"><defs><style>.cls-1{fill:#d3a243;}</style></defs><g id="contents"><g><path class="cls-1" d="M174.45,321.31c-23.39-8.52-56-28.8-78.5-77.05-11.47-24.6-16.55-55.8-15.22-93.1C35.82,161.1,0,176.54,0,176.54c0,0,60.35,120.14,136.24,147.76,32.43,11.8,60.1,11.24,82.16,3.97-1.34,.05-2.69,.08-4.05,.08-13.47,0-27.27-2.43-39.9-7.03Z"/><path class="cls-1" d="M489.27,151.16c1.33,37.31-3.75,68.5-15.22,93.1-22.5,48.25-55.11,68.53-78.5,77.05-12.63,4.6-26.43,7.03-39.9,7.03-1.35,0-2.7-.03-4.05-.08,22.06,7.27,49.73,7.83,82.16-3.97,75.88-27.62,136.24-147.76,136.24-147.76,0,0-35.82-15.44-80.73-25.38Z"/><path class="cls-1" d="M170.43,178.56c0-10.74,1.35-22,4.02-33.75,1.81-7.96,4.25-16.15,7.28-24.55,5.2-14.38,12.18-29.39,20.93-44.98-40-26.03-78.33-41.27-78.33-41.27,0,0-13.01,39.3-18.77,86.79-1.03,8.47-1.82,17.2-2.27,26.02-1.57,30.82,1.09,62.67,12.9,88,31.05,66.59,86.48,78.3,121.85,67.92-10.54-5.44-20.44-12.6-29.02-21.19-17.6-17.61-38.58-49.77-38.58-103Z"/><path class="cls-1" d="M453.82,234.83c11.81-25.33,14.47-57.18,12.9-88-.45-8.82-1.25-17.55-2.27-26.02-5.76-47.49-18.77-86.79-18.77-86.79,0,0-38.33,15.24-78.33,41.27,8.75,15.59,15.73,30.6,20.93,44.98,3.04,8.4,5.47,16.58,7.28,24.55,2.68,11.74,4.02,23,4.02,33.75,0,53.24-20.98,85.4-38.58,103-8.59,8.59-18.48,15.75-29.02,21.19,35.37,10.38,90.8-1.33,121.85-67.92Z"/><path class="cls-1" d="M377.25,178.56c0-9.4-1.26-19.03-3.47-28.71-1.85-8.09-4.36-16.22-7.38-24.28-4.8-12.83-10.87-25.47-17.52-37.51-3.67-6.65-7.52-13.11-11.43-19.32C312.48,29.14,285,0,285,0c0,0-27.48,29.14-52.45,68.74-3.91,6.21-7.76,12.67-11.43,19.32-6.65,12.04-12.72,24.69-17.52,37.51-3.02,8.06-5.53,16.18-7.38,24.28-2.21,9.68-3.47,19.31-3.47,28.71,0,66.22,36.79,100.41,70.74,110.57,1.5,.45,3,.85,4.48,1.21,2.01,.48,4,.88,5.97,1.19,1.36,.22,2.71,.39,4.04,.53,2.39,.25,4.74,.37,7.03,.37s4.63-.12,7.03-.37c1.33-.14,2.68-.31,4.04-.53,1.97-.31,3.96-.71,5.97-1.19,1.49-.36,2.98-.76,4.48-1.21,33.95-10.16,70.74-44.34,70.74-110.57Z"/></g></g></svg>