<svg xmlns="http://www.w3.org/2000/svg" viewBox="0 0 241.26 19.7"><g id="レイヤー_2" data-name="レイヤー 2"><g id="レイヤー_1-2" data-name="レイヤー 1"><path d="M1.16,19V17.4a8.36,8.36,0,0,0,3.5.7c2,0,3.56-.9,3.56-3.84V13.8h-.1a3.78,3.78,0,0,1-3.3,1.62C2,15.42,0,13.24,0,10.14S1.84,4.88,4.8,4.88A3.93,3.93,0,0,1,8.44,7h.12c.1-.74.16-1.24.28-1.82H10v8.48c0,3.54-1.18,6.06-5.36,6.06A9.4,9.4,0,0,1,1.16,19ZM8.38,10.2C8.36,8,7.1,6.52,5.1,6.52S1.86,8,1.86,10.14s1.34,3.62,3.2,3.62S8.38,12.42,8.38,10.2Z"/><path d="M12.78,10.12a5,5,0,0,1,5.3-5.24,4.93,4.93,0,0,1,5.26,5.24,5,5,0,0,1-5.26,5.28A5,5,0,0,1,12.78,10.12Zm8.7,0A3.31,3.31,0,0,0,18,6.5a3.31,3.31,0,0,0-3.4,3.62,3.36,3.36,0,0,0,3.46,3.66C20.12,13.78,21.48,12.36,21.48,10.12Z"/><path d="M25.54,1.92A1.37,1.37,0,0,1,27,.5a1.34,1.34,0,0,1,1.44,1.42A1.35,1.35,0,0,1,27,3.36,1.4,1.4,0,0,1,25.54,1.92Zm.6,3.24h1.8V15.1h-1.8Z"/><path d="M31.46.22h1.8V9.06h1.92l3-3.9h2.08L36.56,9.88l3.92,5.22H38.32L35,10.66H33.26V15.1h-1.8Z"/><path d="M41.48,10.08c0-3.18,2.06-5.22,4.92-5.22A4.23,4.23,0,0,1,51,9.44a6.77,6.77,0,0,1-.12,1.28H43.34c0,1.78,1.18,3.16,3.8,3.16a8.6,8.6,0,0,0,3.22-.62v1.46a7.75,7.75,0,0,1-3.32.7C43.42,15.42,41.48,13.34,41.48,10.08Zm7.66-.66a3.27,3.27,0,0,0,0-.44c0-1.52-1-2.58-2.82-2.58a3,3,0,0,0-3,3Z"/><path d="M54.12,8.18c0-1.34-.06-1.88-.78-1.88a2.36,2.36,0,0,0-.5.08V5.06a3.68,3.68,0,0,1,1.06-.18c1.36,0,1.68.78,1.76,2.16h.1a3.91,3.91,0,0,1,3.68-2.16c2.78,0,4.08,1.7,4.08,4.82v5.4h-1.8V9.86c0-2-.62-3.34-2.6-3.34A3.17,3.17,0,0,0,55.94,10l0,5.12h-1.8Z"/><path d="M66.16,10c0-5.5,3.7-9.6,9.64-9.6s8.56,4.14,8.56,8.46c0,4-2,5.68-3.94,5.68a2.24,2.24,0,0,1-2.48-1.88h-.1a3.49,3.49,0,0,1-3.2,1.76c-2.46,0-4-1.76-4-4.46,0-2.48,1.4-4.4,3.9-4.4A3.42,3.42,0,0,1,77.84,7.3h.1a9.2,9.2,0,0,1,.2-1.46h1.2v5.62c0,1.42.52,1.72,1.22,1.72,1.22,0,2.34-1.6,2.34-4.26,0-4.08-2.32-7.16-7.1-7.16S67.6,5,67.6,10s3.2,8.06,8,8.06a11.8,11.8,0,0,0,3.6-.5l.1,1.44a14.14,14.14,0,0,1-3.7.4C69.52,19.42,66.16,15.38,66.16,10Zm11.58-.08c0-2-1.08-3-2.78-3S72.3,8.2,72.3,10s1,3.1,2.7,3.1S77.74,11.84,77.74,9.94Z"/><path d="M84.12,19.38V17.82a4.29,4.29,0,0,0,1.5.28c1.52,0,1.78-1,1.78-2.8V5.16h1.8V15.62c0,2.68-.92,4.08-3.36,4.08A5,5,0,0,1,84.12,19.38ZM86.84,1.92A1.37,1.37,0,0,1,88.32.5a1.34,1.34,0,0,1,1.44,1.42,1.35,1.35,0,0,1-1.44,1.44A1.4,1.4,0,0,1,86.84,1.92Z"/><path d="M92.46,9.2h7.18v1.58H92.46Z"/><path d="M108.1,13.66v1.46a6,6,0,0,1-1.76.28c-1.92,0-3.22-1.06-3.22-3.74V6.76H102V5.16h1.2a17,17,0,0,1,.4-2.42h1.36V5.16h2.7v1.6h-2.7v4.42c0,1.84.42,2.68,1.92,2.68A4.85,4.85,0,0,0,108.1,13.66Z"/><path d="M110.46,0h1.8V6.48h.1a4,4,0,0,1,3.42-1.6c2.78,0,4.08,1.7,4.08,4.82v5.4h-1.8V9.86c0-2-.62-3.34-2.6-3.34a3.07,3.07,0,0,0-3.18,3.32l0,5.26h-1.8Z"/><path d="M122.48,10.08c0-3.18,2.06-5.22,4.92-5.22A4.23,4.23,0,0,1,132,9.44a6.77,6.77,0,0,1-.12,1.28h-7.54c0,1.78,1.18,3.16,3.8,3.16a8.6,8.6,0,0,0,3.22-.62v1.46a7.75,7.75,0,0,1-3.32.7C124.42,15.42,122.48,13.34,122.48,10.08Zm7.66-.66a3.27,3.27,0,0,0,0-.44c0-1.52-1-2.58-2.82-2.58a3,3,0,0,0-3,3Z"/><path d="M135.12,8.18c0-1.34-.06-1.88-.78-1.88a2.36,2.36,0,0,0-.5.08V5.06a3.68,3.68,0,0,1,1.06-.18c1.42,0,1.68,1,1.76,2.36h.1a4.05,4.05,0,0,1,3.68-2.36v2a3.4,3.4,0,0,0-3.5,3.62l0,4.62h-1.8Z"/><path d="M141.66,10.16c0-3.08,1.92-5.28,4.76-5.28a4.06,4.06,0,0,1,3.66,1.94h.1a16.08,16.08,0,0,1,.3-1.66h1.18v6.92c0,1.34.08,1.88.8,1.88a2,2,0,0,0,.48-.06v1.32a3.43,3.43,0,0,1-1,.18c-1.32,0-1.66-.78-1.74-2.08h-.1a4,4,0,0,1-3.72,2.1C143.5,15.42,141.66,13.2,141.66,10.16Zm8.34-.08c0-2.26-1.3-3.6-3.3-3.6s-3.18,1.44-3.18,3.66,1.28,3.68,3.22,3.68S150,12.28,150,10.08Z"/><path d="M153.86,5.16h2l3.26,8.28h.14l3.26-8.28h1.9l-4.1,9.94H158Z"/><path d="M165.74,10.16c0-3.08,1.92-5.28,4.76-5.28a4.06,4.06,0,0,1,3.66,1.94h.1a16.08,16.08,0,0,1,.3-1.66h1.18v6.92c0,1.34.08,1.88.8,1.88a2,2,0,0,0,.48-.06v1.32a3.43,3.43,0,0,1-1,.18c-1.32,0-1.66-.78-1.74-2.08h-.1a4,4,0,0,1-3.72,2.1C167.58,15.42,165.74,13.2,165.74,10.16Zm8.34-.08c0-2.26-1.3-3.6-3.3-3.6s-3.18,1.44-3.18,3.66,1.28,3.68,3.22,3.68S174.06,12.28,174.08,10.08Z"/><path d="M178.92,10.16c0-3.08,1.92-5.28,4.76-5.28A3.93,3.93,0,0,1,187,6.52h.1V0h1.8V12.08c0,1.34.08,1.88.8,1.88a2,2,0,0,0,.48-.06v1.32a3.43,3.43,0,0,1-1,.18c-1.32,0-1.68-.78-1.74-2.08h-.12a3.9,3.9,0,0,1-3.7,2.1C180.76,15.42,178.92,13.2,178.92,10.16Zm8.32-.08c0-2.18-1.28-3.6-3.28-3.6s-3.18,1.44-3.18,3.66,1.28,3.68,3.22,3.68S187.24,12.28,187.24,10.08Z"/><path d="M192.1,10.16c0-3.08,1.92-5.28,4.76-5.28a4.06,4.06,0,0,1,3.66,1.94h.1a16.08,16.08,0,0,1,.3-1.66h1.18v6.92c0,1.34.08,1.88.8,1.88a2,2,0,0,0,.48-.06v1.32a3.43,3.43,0,0,1-1,.18c-1.32,0-1.66-.78-1.74-2.08h-.1a4,4,0,0,1-3.72,2.1C193.94,15.42,192.1,13.2,192.1,10.16Zm8.34-.08c0-2.26-1.3-3.6-3.3-3.6S194,7.92,194,10.14s1.28,3.68,3.22,3.68S200.42,12.28,200.44,10.08Z"/><path d="M205.52,14a1.37,1.37,0,0,1,2.74,0,1.37,1.37,0,1,1-2.74,0Z"/><path d="M211.68,8.18c0-1.34-.06-1.88-.78-1.88a2.36,2.36,0,0,0-.5.08V5.06a3.68,3.68,0,0,1,1.06-.18c1.36,0,1.68.78,1.76,2.16h.1A3.91,3.91,0,0,1,217,4.88c2.78,0,4.08,1.7,4.08,4.82v5.4h-1.8V9.86c0-2-.62-3.34-2.6-3.34A3.17,3.17,0,0,0,213.5,10l0,5.12h-1.8Z"/><path d="M223.72,10.08c0-3.18,2.06-5.22,4.92-5.22a4.23,4.23,0,0,1,4.6,4.58,6.77,6.77,0,0,1-.12,1.28h-7.54c0,1.78,1.18,3.16,3.8,3.16a8.6,8.6,0,0,0,3.22-.62v1.46a7.75,7.75,0,0,1-3.32.7C225.66,15.42,223.72,13.34,223.72,10.08Zm7.66-.66a3.27,3.27,0,0,0,0-.44c0-1.52-1-2.58-2.82-2.58a3,3,0,0,0-3,3Z"/><path d="M241.26,13.66v1.46a6,6,0,0,1-1.76.28c-1.92,0-3.22-1.06-3.22-3.74V6.76h-1.16V5.16h1.2a17,17,0,0,1,.4-2.42h1.36V5.16h2.7v1.6h-2.7v4.42c0,1.84.42,2.68,1.92,2.68A4.85,4.85,0,0,0,241.26,13.66Z"/></g></g></svg>