<svg xmlns="http://www.w3.org/2000/svg" viewBox="0 0 24 28"><defs><style>.cls-1{fill:#c64306;}</style></defs><title>ico-q-noto</title><g id="レイヤー_2" data-name="レイヤー 2"><g id="レイヤー_1-2" data-name="レイヤー 1"><path class="cls-1" d="M15.18,28a8.62,8.62,0,0,1-3.2-.61,6.1,6.1,0,0,1-2.64-2.06,7.31,7.31,0,0,1-1.27-3.94,8.72,8.72,0,0,1-4.51-1.72A8.44,8.44,0,0,1,.88,16,14.59,14.59,0,0,1,0,10.7,13.75,13.75,0,0,1,1.06,5.06a8.17,8.17,0,0,1,3.2-3.73A9.93,9.93,0,0,1,9.62,0,9.57,9.57,0,0,1,14.8,1.33a8.51,8.51,0,0,1,3.26,3.74,13.26,13.26,0,0,1,1.12,5.66,12.26,12.26,0,0,1-1.9,7,8.21,8.21,0,0,1-5.45,3.51,8.57,8.57,0,0,0,.78,3.18,3.56,3.56,0,0,0,1.52,1.61,4.62,4.62,0,0,0,2.09.47h.48V28ZM9.59,19.82a4.69,4.69,0,0,0,4.5-2.4,14.29,14.29,0,0,0,1.3-6.69,14.18,14.18,0,0,0-1.3-6.68A4.67,4.67,0,0,0,9.62,1.67,4.76,4.76,0,0,0,5.11,4.05a13.66,13.66,0,0,0-1.35,6.68,14,14,0,0,0,1.33,6.69A4.73,4.73,0,0,0,9.59,19.82Z"/><path class="cls-1" d="M22,28a2.3,2.3,0,0,1-1.45-.45,2,2,0,0,1-.58-1.63,1.93,1.93,0,0,1,.58-1.63,2.58,2.58,0,0,1,2.88,0,1.9,1.9,0,0,1,.6,1.63,1.94,1.94,0,0,1-.6,1.63A2.3,2.3,0,0,1,22,28Z"/></g></g></svg>